<svg width="392" height="200" viewBox="0 0 392 200" fill="none" xmlns="http://www.w3.org/2000/svg">
<g filter="url(#filter0_d_1216_173)">
<circle cx="195.5" cy="99.5" r="73.5" stroke="#D2D6DB" stroke-width="4"/>
</g>
<circle cx="196" cy="100" r="99" stroke="#D2D6DB" stroke-width="2"/>
<path d="M163.869 92.4545L167.918 104.301H168.081L172.129 92.4545H174.501L169.267 107H166.732L161.497 92.4545H163.869ZM178.532 107.241C177.841 107.241 177.216 107.114 176.657 106.858C176.098 106.598 175.656 106.221 175.329 105.729C175.007 105.236 174.846 104.633 174.846 103.918C174.846 103.302 174.964 102.795 175.201 102.398C175.438 102 175.757 101.685 176.16 101.453C176.562 101.221 177.012 101.046 177.509 100.928C178.006 100.809 178.513 100.719 179.029 100.658C179.683 100.582 180.213 100.52 180.62 100.473C181.027 100.421 181.323 100.338 181.508 100.224C181.692 100.111 181.785 99.9261 181.785 99.6705V99.6207C181.785 99.0005 181.61 98.5199 181.259 98.179C180.914 97.8381 180.397 97.6676 179.711 97.6676C178.996 97.6676 178.433 97.8262 178.021 98.1435C177.613 98.456 177.332 98.804 177.175 99.1875L175.18 98.733C175.416 98.0701 175.762 97.535 176.217 97.1278C176.676 96.7159 177.204 96.4176 177.8 96.233C178.397 96.0436 179.024 95.9489 179.683 95.9489C180.118 95.9489 180.58 96.0009 181.067 96.1051C181.56 96.2045 182.019 96.3892 182.445 96.6591C182.876 96.929 183.229 97.3149 183.504 97.8168C183.778 98.3139 183.915 98.9602 183.915 99.7557V107H181.842V105.509H181.756C181.619 105.783 181.413 106.053 181.138 106.318C180.864 106.583 180.511 106.804 180.08 106.979C179.649 107.154 179.133 107.241 178.532 107.241ZM178.994 105.537C179.581 105.537 180.083 105.421 180.499 105.189C180.921 104.957 181.24 104.654 181.458 104.28C181.681 103.901 181.792 103.496 181.792 103.065V101.659C181.716 101.735 181.569 101.806 181.352 101.872C181.138 101.934 180.895 101.988 180.62 102.036C180.345 102.078 180.078 102.118 179.817 102.156C179.557 102.189 179.339 102.218 179.164 102.241C178.752 102.294 178.376 102.381 178.035 102.504C177.699 102.627 177.429 102.805 177.225 103.037C177.026 103.264 176.927 103.567 176.927 103.946C176.927 104.472 177.121 104.869 177.509 105.139C177.897 105.404 178.392 105.537 178.994 105.537ZM194.919 98.7543L192.994 99.0952C192.913 98.849 192.786 98.6146 192.61 98.392C192.44 98.1695 192.208 97.9872 191.914 97.8452C191.621 97.7031 191.254 97.6321 190.814 97.6321C190.212 97.6321 189.71 97.767 189.308 98.0369C188.905 98.3021 188.704 98.6454 188.704 99.0668C188.704 99.4313 188.839 99.7249 189.109 99.9474C189.379 100.17 189.815 100.352 190.416 100.494L192.149 100.892C193.153 101.124 193.901 101.482 194.393 101.964C194.886 102.447 195.132 103.075 195.132 103.847C195.132 104.5 194.942 105.082 194.564 105.594C194.19 106.1 193.666 106.498 192.994 106.787C192.326 107.076 191.552 107.22 190.672 107.22C189.45 107.22 188.453 106.96 187.681 106.439C186.91 105.913 186.436 105.168 186.261 104.202L188.314 103.889C188.441 104.424 188.704 104.829 189.102 105.104C189.5 105.374 190.018 105.509 190.657 105.509C191.353 105.509 191.91 105.364 192.326 105.075C192.743 104.782 192.951 104.424 192.951 104.003C192.951 103.662 192.824 103.375 192.568 103.143C192.317 102.911 191.931 102.736 191.41 102.618L189.564 102.213C188.546 101.981 187.793 101.612 187.305 101.105C186.822 100.598 186.581 99.9569 186.581 99.1804C186.581 98.5365 186.761 97.973 187.12 97.4901C187.48 97.0071 187.977 96.6307 188.612 96.3608C189.246 96.0862 189.973 95.9489 190.792 95.9489C191.971 95.9489 192.899 96.2045 193.576 96.7159C194.253 97.2225 194.701 97.902 194.919 98.7543ZM202.559 96.0909V97.7955H196.6V96.0909H202.559ZM198.198 93.4773H200.322V103.797C200.322 104.209 200.383 104.519 200.506 104.727C200.629 104.931 200.788 105.071 200.982 105.146C201.181 105.217 201.397 105.253 201.629 105.253C201.799 105.253 201.948 105.241 202.076 105.217C202.204 105.194 202.303 105.175 202.374 105.161L202.758 106.915C202.635 106.962 202.46 107.009 202.232 107.057C202.005 107.109 201.721 107.137 201.38 107.142C200.821 107.152 200.3 107.052 199.817 106.844C199.335 106.635 198.944 106.313 198.646 105.878C198.347 105.442 198.198 104.895 198.198 104.237V93.4773ZM211.819 102.476V96.0909H213.949V107H211.861V105.111H211.748C211.497 105.693 211.094 106.179 210.54 106.567C209.991 106.95 209.307 107.142 208.488 107.142C207.787 107.142 207.167 106.988 206.627 106.68C206.092 106.368 205.67 105.906 205.363 105.295C205.06 104.685 204.908 103.929 204.908 103.03V96.0909H207.032V102.774C207.032 103.518 207.238 104.109 207.65 104.55C208.061 104.99 208.596 105.21 209.255 105.21C209.652 105.21 210.048 105.111 210.441 104.912C210.838 104.713 211.167 104.412 211.428 104.01C211.693 103.607 211.823 103.096 211.819 102.476ZM224.977 98.7543L223.053 99.0952C222.972 98.849 222.844 98.6146 222.669 98.392C222.499 98.1695 222.267 97.9872 221.973 97.8452C221.679 97.7031 221.313 97.6321 220.872 97.6321C220.271 97.6321 219.769 97.767 219.366 98.0369C218.964 98.3021 218.763 98.6454 218.763 99.0668C218.763 99.4313 218.898 99.7249 219.168 99.9474C219.438 100.17 219.873 100.352 220.474 100.494L222.207 100.892C223.211 101.124 223.959 101.482 224.452 101.964C224.944 102.447 225.19 103.075 225.19 103.847C225.19 104.5 225.001 105.082 224.622 105.594C224.248 106.1 223.725 106.498 223.053 106.787C222.385 107.076 221.611 107.22 220.73 107.22C219.509 107.22 218.512 106.96 217.74 106.439C216.968 105.913 216.495 105.168 216.32 104.202L218.372 103.889C218.5 104.424 218.763 104.829 219.161 105.104C219.558 105.374 220.077 105.509 220.716 105.509C221.412 105.509 221.968 105.364 222.385 105.075C222.802 104.782 223.01 104.424 223.01 104.003C223.01 103.662 222.882 103.375 222.626 103.143C222.375 102.911 221.99 102.736 221.469 102.618L219.622 102.213C218.604 101.981 217.851 101.612 217.364 101.105C216.881 100.598 216.639 99.9569 216.639 99.1804C216.639 98.5365 216.819 97.973 217.179 97.4901C217.539 97.0071 218.036 96.6307 218.67 96.3608C219.305 96.0862 220.032 95.9489 220.851 95.9489C222.03 95.9489 222.958 96.2045 223.635 96.7159C224.312 97.2225 224.759 97.902 224.977 98.7543Z" fill="#B7BBBF"/>
<path d="M316.526 92.9091H318.495V102.19C318.495 103.03 318.329 103.748 317.996 104.344C317.668 104.941 317.206 105.397 316.609 105.712C316.013 106.023 315.314 106.179 314.513 106.179C313.776 106.179 313.113 106.045 312.525 105.776C311.941 105.508 311.479 105.118 311.138 104.607C310.801 104.091 310.633 103.464 310.633 102.727H312.595C312.595 103.089 312.678 103.403 312.844 103.667C313.015 103.931 313.247 104.138 313.541 104.287C313.839 104.432 314.18 104.504 314.564 104.504C314.982 104.504 315.335 104.417 315.625 104.242C315.919 104.063 316.143 103.801 316.296 103.456C316.45 103.111 316.526 102.689 316.526 102.19V92.9091ZM324.074 106.217C323.452 106.217 322.889 106.102 322.386 105.872C321.883 105.638 321.485 105.299 321.191 104.856C320.901 104.413 320.756 103.869 320.756 103.226C320.756 102.672 320.863 102.216 321.076 101.858C321.289 101.5 321.577 101.217 321.939 101.008C322.301 100.799 322.706 100.641 323.153 100.535C323.601 100.428 324.057 100.347 324.521 100.292C325.109 100.224 325.586 100.168 325.953 100.126C326.319 100.079 326.586 100.004 326.752 99.902C326.918 99.7997 327.001 99.6335 327.001 99.4034V99.3587C327.001 98.8004 326.844 98.3679 326.528 98.0611C326.217 97.7543 325.753 97.6009 325.135 97.6009C324.491 97.6009 323.984 97.7436 323.613 98.0291C323.247 98.3104 322.993 98.6236 322.853 98.9688L321.057 98.5597C321.27 97.9631 321.581 97.4815 321.99 97.1151C322.403 96.7443 322.878 96.4759 323.415 96.3097C323.952 96.1392 324.517 96.054 325.109 96.054C325.501 96.054 325.917 96.1009 326.356 96.1946C326.799 96.2841 327.212 96.4503 327.596 96.6932C327.983 96.9361 328.301 97.2834 328.548 97.7351C328.795 98.1825 328.919 98.7642 328.919 99.4801V106H327.052V104.658H326.976C326.852 104.905 326.667 105.148 326.42 105.386C326.172 105.625 325.855 105.823 325.467 105.981C325.079 106.138 324.615 106.217 324.074 106.217ZM324.489 104.683C325.018 104.683 325.469 104.579 325.844 104.37C326.224 104.161 326.511 103.888 326.707 103.552C326.907 103.211 327.008 102.847 327.008 102.459V101.193C326.939 101.261 326.807 101.325 326.611 101.385C326.42 101.44 326.2 101.489 325.953 101.532C325.706 101.57 325.465 101.607 325.231 101.641C324.996 101.67 324.8 101.696 324.643 101.717C324.272 101.764 323.933 101.843 323.626 101.954C323.324 102.065 323.081 102.224 322.898 102.433C322.719 102.638 322.629 102.911 322.629 103.251C322.629 103.724 322.804 104.082 323.153 104.325C323.503 104.564 323.948 104.683 324.489 104.683ZM323.332 94.6413C323.03 94.6413 322.765 94.5305 322.54 94.3089C322.314 94.0831 322.201 93.8232 322.201 93.5291C322.201 93.2095 322.314 92.9432 322.54 92.7301C322.765 92.517 323.03 92.4105 323.332 92.4105C323.652 92.4105 323.918 92.517 324.131 92.7301C324.349 92.9432 324.457 93.2095 324.457 93.5291C324.457 93.8232 324.349 94.0831 324.131 94.3089C323.918 94.5305 323.652 94.6413 323.332 94.6413ZM327.091 94.6413C326.788 94.6413 326.524 94.5305 326.298 94.3089C326.072 94.0831 325.959 93.8232 325.959 93.5291C325.959 93.2095 326.072 92.9432 326.298 92.7301C326.524 92.517 326.788 92.4105 327.091 92.4105C327.41 92.4105 327.677 92.517 327.89 92.7301C328.107 92.9432 328.216 93.2095 328.216 93.5291C328.216 93.8232 328.107 94.0831 327.89 94.3089C327.677 94.5305 327.41 94.6413 327.091 94.6413ZM331.464 106V96.1818H333.312V97.7415H333.414C333.593 97.2131 333.908 96.7976 334.36 96.495C334.816 96.1882 335.332 96.0348 335.907 96.0348C336.026 96.0348 336.167 96.0391 336.329 96.0476C336.495 96.0561 336.625 96.0668 336.719 96.0795V97.9077C336.642 97.8864 336.506 97.8629 336.31 97.8374C336.114 97.8075 335.918 97.7926 335.722 97.7926C335.27 97.7926 334.867 97.8885 334.513 98.0803C334.164 98.2678 333.887 98.5298 333.683 98.8665C333.478 99.1989 333.376 99.5781 333.376 100.004V106H331.464ZM342.138 109.886C341.358 109.886 340.687 109.784 340.124 109.58C339.566 109.375 339.11 109.104 338.756 108.768C338.403 108.431 338.138 108.063 337.964 107.662L339.606 106.984C339.721 107.172 339.875 107.37 340.067 107.579C340.263 107.792 340.527 107.973 340.859 108.122C341.196 108.271 341.628 108.346 342.157 108.346C342.881 108.346 343.48 108.169 343.953 107.815C344.426 107.466 344.662 106.908 344.662 106.141V104.21H344.541C344.426 104.419 344.26 104.651 344.042 104.907C343.829 105.163 343.535 105.384 343.16 105.572C342.785 105.759 342.297 105.853 341.697 105.853C340.921 105.853 340.222 105.672 339.6 105.31C338.982 104.943 338.492 104.404 338.13 103.692C337.772 102.977 337.593 102.097 337.593 101.053C337.593 100.009 337.77 99.1136 338.123 98.3679C338.481 97.6222 338.971 97.0511 339.594 96.6548C340.216 96.2543 340.921 96.054 341.709 96.054C342.319 96.054 342.811 96.1562 343.186 96.3608C343.561 96.5611 343.853 96.7955 344.062 97.0639C344.275 97.3324 344.439 97.5689 344.554 97.7734H344.694V96.1818H346.567V106.217C346.567 107.061 346.371 107.754 345.979 108.295C345.587 108.836 345.057 109.237 344.388 109.496C343.723 109.756 342.973 109.886 342.138 109.886ZM342.118 104.268C342.668 104.268 343.133 104.14 343.512 103.884C343.895 103.624 344.185 103.254 344.381 102.772C344.581 102.286 344.682 101.705 344.682 101.027C344.682 100.366 344.584 99.7848 344.388 99.282C344.192 98.7791 343.904 98.3871 343.525 98.1058C343.145 97.8203 342.677 97.6776 342.118 97.6776C341.543 97.6776 341.064 97.8267 340.68 98.125C340.297 98.419 340.007 98.8196 339.811 99.3267C339.619 99.8338 339.523 100.401 339.523 101.027C339.523 101.67 339.621 102.235 339.817 102.721C340.013 103.207 340.303 103.586 340.687 103.859C341.074 104.131 341.552 104.268 342.118 104.268ZM349.131 106V96.1818H350.965V97.7798H351.086C351.291 97.2386 351.626 96.8168 352.09 96.5142C352.555 96.2074 353.111 96.054 353.758 96.054C354.415 96.054 354.964 96.2074 355.407 96.5142C355.855 96.821 356.185 97.2429 356.398 97.7798H356.501C356.735 97.2557 357.108 96.8381 357.619 96.527C358.131 96.2116 358.74 96.054 359.447 96.054C360.338 96.054 361.064 96.3331 361.627 96.8913C362.194 97.4496 362.477 98.2912 362.477 99.4162V106H360.566V99.5952C360.566 98.9304 360.385 98.4489 360.023 98.1506C359.66 97.8523 359.228 97.7031 358.725 97.7031C358.103 97.7031 357.619 97.8949 357.274 98.2784C356.929 98.6577 356.756 99.1456 356.756 99.7422V106H354.851V99.4737C354.851 98.9411 354.685 98.5128 354.353 98.1889C354.02 97.8651 353.588 97.7031 353.055 97.7031C352.693 97.7031 352.358 97.799 352.052 97.9908C351.749 98.1783 351.504 98.4403 351.317 98.777C351.133 99.1136 351.042 99.5036 351.042 99.9467V106H349.131ZM365.039 106V96.1818H366.95V106H365.039ZM366.004 94.6669C365.672 94.6669 365.386 94.5561 365.147 94.3345C364.913 94.1087 364.796 93.8402 364.796 93.5291C364.796 93.2138 364.913 92.9453 365.147 92.7237C365.386 92.4979 365.672 92.3849 366.004 92.3849C366.336 92.3849 366.62 92.4979 366.854 92.7237C367.093 92.9453 367.212 93.2138 367.212 93.5291C367.212 93.8402 367.093 94.1087 366.854 94.3345C366.62 94.5561 366.336 94.6669 366.004 94.6669ZM371.432 100.17V106H369.521V96.1818H371.356V97.7798H371.477C371.703 97.2599 372.057 96.8423 372.538 96.527C373.024 96.2116 373.635 96.054 374.373 96.054C375.042 96.054 375.628 96.1946 376.131 96.4759C376.633 96.7528 377.023 97.1662 377.3 97.7159C377.577 98.2656 377.716 98.9453 377.716 99.755V106H375.805V99.9851C375.805 99.2734 375.619 98.7173 375.248 98.3168C374.878 97.9119 374.368 97.7095 373.721 97.7095C373.278 97.7095 372.883 97.8054 372.538 97.9972C372.197 98.1889 371.927 98.4702 371.726 98.8409C371.53 99.2074 371.432 99.6506 371.432 100.17ZM384.51 106.198C383.543 106.198 382.71 105.991 382.011 105.578C381.317 105.161 380.78 104.575 380.4 103.82C380.025 103.062 379.838 102.173 379.838 101.155C379.838 100.149 380.025 99.2628 380.4 98.4957C380.78 97.7287 381.308 97.13 381.986 96.6996C382.667 96.2692 383.464 96.054 384.376 96.054C384.93 96.054 385.467 96.1456 385.987 96.3288C386.507 96.5121 386.974 96.7997 387.387 97.1918C387.8 97.5838 388.126 98.093 388.365 98.7195C388.604 99.3416 388.723 100.098 388.723 100.989V101.666H380.918V100.234H386.85C386.85 99.7315 386.748 99.2862 386.543 98.8984C386.339 98.5064 386.051 98.1974 385.68 97.9716C385.314 97.7457 384.883 97.6328 384.389 97.6328C383.852 97.6328 383.383 97.7649 382.983 98.0291C382.586 98.2891 382.28 98.63 382.062 99.0518C381.849 99.4695 381.743 99.9233 381.743 100.413V101.532C381.743 102.188 381.858 102.746 382.088 103.207C382.322 103.667 382.648 104.018 383.066 104.261C383.483 104.5 383.971 104.619 384.53 104.619C384.892 104.619 385.222 104.568 385.52 104.466C385.819 104.359 386.077 104.202 386.294 103.993C386.511 103.784 386.677 103.526 386.792 103.219L388.601 103.545C388.456 104.078 388.197 104.545 387.822 104.945C387.451 105.342 386.984 105.651 386.422 105.872C385.863 106.089 385.226 106.198 384.51 106.198Z" fill="#B7BBBF"/>
<path d="M7.52628 91.9091H9.49503V101.19C9.49503 102.03 9.32884 102.748 8.99645 103.344C8.66832 103.941 8.20597 104.397 7.60938 104.712C7.01278 105.023 6.31392 105.179 5.51278 105.179C4.77557 105.179 4.11293 105.045 3.52486 104.776C2.94105 104.508 2.47869 104.118 2.13778 103.607C1.80114 103.091 1.63281 102.464 1.63281 101.727H3.59517C3.59517 102.089 3.67827 102.403 3.84446 102.667C4.01491 102.931 4.24716 103.138 4.54119 103.287C4.83949 103.432 5.1804 103.504 5.56392 103.504C5.98153 103.504 6.33523 103.417 6.625 103.242C6.91903 103.063 7.14276 102.801 7.29616 102.456C7.44957 102.111 7.52628 101.689 7.52628 101.19V91.9091ZM15.0737 105.217C14.4515 105.217 13.889 105.102 13.3862 104.872C12.8833 104.638 12.4849 104.299 12.1909 103.856C11.9011 103.413 11.7562 102.869 11.7562 102.226C11.7562 101.672 11.8627 101.216 12.0758 100.858C12.2889 100.5 12.5765 100.217 12.9387 100.008C13.301 99.799 13.7058 99.6413 14.1532 99.5348C14.6007 99.4283 15.0566 99.3473 15.5211 99.2919C16.1092 99.2237 16.5865 99.1683 16.9529 99.1257C17.3194 99.0788 17.5858 99.0043 17.752 98.902C17.9181 98.7997 18.0012 98.6335 18.0012 98.4034V98.3587C18.0012 97.8004 17.8436 97.3679 17.5282 97.0611C17.2172 96.7543 16.7527 96.6009 16.1348 96.6009C15.4913 96.6009 14.9842 96.7436 14.6135 97.0291C14.247 97.3104 13.9934 97.6236 13.8528 97.9688L12.0566 97.5597C12.2697 96.9631 12.5808 96.4815 12.9899 96.1151C13.4032 95.7443 13.8784 95.4759 14.4153 95.3097C14.9522 95.1392 15.5169 95.054 16.1092 95.054C16.5012 95.054 16.9167 95.1009 17.3556 95.1946C17.7988 95.2841 18.2122 95.4503 18.5957 95.6932C18.9835 95.9361 19.301 96.2834 19.5481 96.7351C19.7953 97.1825 19.9189 97.7642 19.9189 98.4801V105H18.0524V103.658H17.9757C17.8521 103.905 17.6667 104.148 17.4196 104.386C17.1724 104.625 16.8549 104.823 16.4672 104.981C16.0794 105.138 15.6149 105.217 15.0737 105.217ZM15.4892 103.683C16.0176 103.683 16.4693 103.579 16.8443 103.37C17.2235 103.161 17.5112 102.888 17.7072 102.552C17.9075 102.211 18.0076 101.847 18.0076 101.459V100.193C17.9395 100.261 17.8074 100.325 17.6113 100.385C17.4196 100.44 17.2001 100.489 16.9529 100.532C16.7058 100.57 16.465 100.607 16.2306 100.641C15.9963 100.67 15.8002 100.696 15.6426 100.717C15.2718 100.764 14.9331 100.843 14.6262 100.954C14.3237 101.065 14.0808 101.224 13.8975 101.433C13.7186 101.638 13.6291 101.911 13.6291 102.251C13.6291 102.724 13.8038 103.082 14.1532 103.325C14.5027 103.564 14.948 103.683 15.4892 103.683ZM14.3322 93.6413C14.0297 93.6413 13.7654 93.5305 13.5396 93.3089C13.3137 93.0831 13.2008 92.8232 13.2008 92.5291C13.2008 92.2095 13.3137 91.9432 13.5396 91.7301C13.7654 91.517 14.0297 91.4105 14.3322 91.4105C14.6518 91.4105 14.9181 91.517 15.1312 91.7301C15.3485 91.9432 15.4572 92.2095 15.4572 92.5291C15.4572 92.8232 15.3485 93.0831 15.1312 93.3089C14.9181 93.5305 14.6518 93.6413 14.3322 93.6413ZM18.0907 93.6413C17.7882 93.6413 17.524 93.5305 17.2981 93.3089C17.0723 93.0831 16.9593 92.8232 16.9593 92.5291C16.9593 92.2095 17.0723 91.9432 17.2981 91.7301C17.524 91.517 17.7882 91.4105 18.0907 91.4105C18.4103 91.4105 18.6767 91.517 18.8897 91.7301C19.1071 91.9432 19.2157 92.2095 19.2157 92.5291C19.2157 92.8232 19.1071 93.0831 18.8897 93.3089C18.6767 93.5305 18.4103 93.6413 18.0907 93.6413ZM22.4645 105V95.1818H24.3118V96.7415H24.4141C24.593 96.2131 24.9084 95.7976 25.3601 95.495C25.8161 95.1882 26.3317 95.0348 26.907 95.0348C27.0263 95.0348 27.1669 95.0391 27.3288 95.0476C27.495 95.0561 27.625 95.0668 27.7188 95.0795V96.9077C27.642 96.8864 27.5057 96.8629 27.3097 96.8374C27.1136 96.8075 26.9176 96.7926 26.7216 96.7926C26.2699 96.7926 25.8672 96.8885 25.5135 97.0803C25.1641 97.2678 24.8871 97.5298 24.6825 97.8665C24.478 98.1989 24.3757 98.5781 24.3757 99.0043V105H22.4645ZM33.1376 108.886C32.3578 108.886 31.6866 108.784 31.1241 108.58C30.5659 108.375 30.1099 108.104 29.7562 107.768C29.4025 107.431 29.1383 107.063 28.9636 106.662L30.6064 105.984C30.7214 106.172 30.8748 106.37 31.0666 106.579C31.2626 106.792 31.5268 106.973 31.8592 107.122C32.1958 107.271 32.6284 107.346 33.1568 107.346C33.8812 107.346 34.4799 107.169 34.9529 106.815C35.426 106.466 35.6625 105.908 35.6625 105.141V103.21H35.541C35.426 103.419 35.2598 103.651 35.0424 103.907C34.8294 104.163 34.5353 104.384 34.1603 104.572C33.7853 104.759 33.2974 104.853 32.6966 104.853C31.921 104.853 31.2221 104.672 30.6 104.31C29.9821 103.943 29.492 103.404 29.1298 102.692C28.7718 101.977 28.5929 101.097 28.5929 100.053C28.5929 99.0085 28.7697 98.1136 29.1234 97.3679C29.4814 96.6222 29.9714 96.0511 30.5936 95.6548C31.2157 95.2543 31.921 95.054 32.7093 95.054C33.3187 95.054 33.8109 95.1562 34.1859 95.3608C34.5609 95.5611 34.8528 95.7955 35.0616 96.0639C35.2747 96.3324 35.4387 96.5689 35.5538 96.7734H35.6944V95.1818H37.5673V105.217C37.5673 106.061 37.3713 106.754 36.9792 107.295C36.5872 107.836 36.0566 108.237 35.3876 108.496C34.7228 108.756 33.9728 108.886 33.1376 108.886ZM33.1184 103.268C33.6681 103.268 34.1326 103.14 34.5119 102.884C34.8954 102.624 35.1852 102.254 35.3812 101.772C35.5815 101.286 35.6816 100.705 35.6816 100.027C35.6816 99.3665 35.5836 98.7848 35.3876 98.282C35.1916 97.7791 34.9039 97.3871 34.5247 97.1058C34.1454 96.8203 33.6767 96.6776 33.1184 96.6776C32.5431 96.6776 32.0637 96.8267 31.6802 97.125C31.2967 97.419 31.0069 97.8196 30.8109 98.3267C30.6191 98.8338 30.5233 99.4006 30.5233 100.027C30.5233 100.67 30.6213 101.235 30.8173 101.721C31.0133 102.207 31.3031 102.586 31.6866 102.859C32.0744 103.131 32.5517 103.268 33.1184 103.268ZM40.1305 105V95.1818H41.965V96.7798H42.0865C42.291 96.2386 42.6255 95.8168 43.09 95.5142C43.5545 95.2074 44.1106 95.054 44.7583 95.054C45.4146 95.054 45.9643 95.2074 46.4075 95.5142C46.8549 95.821 47.1852 96.2429 47.3983 96.7798H47.5005C47.7349 96.2557 48.1078 95.8381 48.6191 95.527C49.1305 95.2116 49.7399 95.054 50.4473 95.054C51.3379 95.054 52.0645 95.3331 52.627 95.8913C53.1937 96.4496 53.4771 97.2912 53.4771 98.4162V105H51.5659V98.5952C51.5659 97.9304 51.3848 97.4489 51.0226 97.1506C50.6603 96.8523 50.2278 96.7031 49.725 96.7031C49.1028 96.7031 48.6191 96.8949 48.274 97.2784C47.9288 97.6577 47.7562 98.1456 47.7562 98.7422V105H45.8514V98.4737C45.8514 97.9411 45.6852 97.5128 45.3528 97.1889C45.0204 96.8651 44.5879 96.7031 44.0552 96.7031C43.693 96.7031 43.3585 96.799 43.0517 96.9908C42.7491 97.1783 42.5041 97.4403 42.3166 97.777C42.1333 98.1136 42.0417 98.5036 42.0417 98.9467V105H40.1305ZM56.0387 105V95.1818H57.9499V105H56.0387ZM57.0039 93.6669C56.6715 93.6669 56.386 93.5561 56.1474 93.3345C55.913 93.1087 55.7958 92.8402 55.7958 92.5291C55.7958 92.2138 55.913 91.9453 56.1474 91.7237C56.386 91.4979 56.6715 91.3849 57.0039 91.3849C57.3363 91.3849 57.6197 91.4979 57.854 91.7237C58.0927 91.9453 58.212 92.2138 58.212 92.5291C58.212 92.8402 58.0927 93.1087 57.854 93.3345C57.6197 93.5561 57.3363 93.6669 57.0039 93.6669ZM62.4324 99.1705V105H60.5211V95.1818H62.3556V96.7798H62.4771C62.7029 96.2599 63.0566 95.8423 63.5382 95.527C64.024 95.2116 64.6355 95.054 65.3727 95.054C66.0417 95.054 66.6277 95.1946 67.1305 95.4759C67.6333 95.7528 68.0233 96.1662 68.3002 96.7159C68.5772 97.2656 68.7157 97.9453 68.7157 98.755V105H66.8045V98.9851C66.8045 98.2734 66.6191 97.7173 66.2484 97.3168C65.8777 96.9119 65.3684 96.7095 64.7207 96.7095C64.2775 96.7095 63.8833 96.8054 63.5382 96.9972C63.1973 97.1889 62.9267 97.4702 62.7264 97.8409C62.5304 98.2074 62.4324 98.6506 62.4324 99.1705ZM75.5105 105.198C74.5431 105.198 73.71 104.991 73.0112 104.578C72.3166 104.161 71.7797 103.575 71.4004 102.82C71.0254 102.062 70.8379 101.173 70.8379 100.155C70.8379 99.1491 71.0254 98.2628 71.4004 97.4957C71.7797 96.7287 72.3081 96.13 72.9856 95.6996C73.6674 95.2692 74.4643 95.054 75.3762 95.054C75.9302 95.054 76.4672 95.1456 76.987 95.3288C77.5069 95.5121 77.9735 95.7997 78.3869 96.1918C78.8002 96.5838 79.1262 97.093 79.3649 97.7195C79.6035 98.3416 79.7228 99.098 79.7228 99.9886V100.666H71.9181V99.2344H77.85C77.85 98.7315 77.7477 98.2862 77.5431 97.8984C77.3386 97.5064 77.051 97.1974 76.6802 96.9716C76.3137 96.7457 75.8833 96.6328 75.389 96.6328C74.8521 96.6328 74.3833 96.7649 73.9828 97.0291C73.5865 97.2891 73.2797 97.63 73.0623 98.0518C72.8493 98.4695 72.7427 98.9233 72.7427 99.4134V100.532C72.7427 101.188 72.8578 101.746 73.0879 102.207C73.3223 102.667 73.6483 103.018 74.0659 103.261C74.4835 103.5 74.9714 103.619 75.5297 103.619C75.8919 103.619 76.2221 103.568 76.5204 103.466C76.8187 103.359 77.0765 103.202 77.2939 102.993C77.5112 102.784 77.6774 102.526 77.7924 102.219L79.6014 102.545C79.4565 103.078 79.1966 103.545 78.8216 103.945C78.4508 104.342 77.9842 104.651 77.4217 104.872C76.8635 105.089 76.2264 105.198 75.5105 105.198Z" fill="#B7BBBF"/>
<path d="M296 162.5C326.718 137.501 336.765 125.903 390.5 122" stroke="#D2D6DB" stroke-width="2" stroke-linecap="round"/>
<path d="M95.5 162.5C64.7815 137.501 54.7351 125.903 1 122" stroke="#D2D6DB" stroke-width="2" stroke-linecap="round"/>
<path d="M296 37C326.718 61.9992 336.765 73.5972 390.5 77.5" stroke="#D2D6DB" stroke-width="2" stroke-linecap="round"/>
<path d="M95.5 34C64.7815 58.9992 54.7351 70.5972 1 74.5" stroke="#D2D6DB" stroke-width="2" stroke-linecap="round"/>
<defs>
<filter id="filter0_d_1216_173" x="118" y="23" width="155" height="155" filterUnits="userSpaceOnUse" color-interpolation-filters="sRGB">
<feFlood flood-opacity="0" result="BackgroundImageFix"/>
<feColorMatrix in="SourceAlpha" type="matrix" values="0 0 0 0 0 0 0 0 0 0 0 0 0 0 0 0 0 0 127 0" result="hardAlpha"/>
<feOffset dy="1"/>
<feGaussianBlur stdDeviation="1"/>
<feColorMatrix type="matrix" values="0 0 0 0 0.0627451 0 0 0 0 0.0941176 0 0 0 0 0.156863 0 0 0 0.05 0"/>
<feBlend mode="normal" in2="BackgroundImageFix" result="effect1_dropShadow_1216_173"/>
<feBlend mode="normal" in="SourceGraphic" in2="effect1_dropShadow_1216_173" result="shape"/>
</filter>
</defs>
</svg>
