<svg xmlns="http://www.w3.org/2000/svg" viewBox="0 0 134.83 162.1"><defs><style>.cls-1{fill:none;stroke:#1d1d1b;stroke-miterlimit:10;stroke-width:0.25px;}.cls-2{fill:#010101;}.cls-3{fill:#fff;}.cls-4{fill:#3c3c3b;}</style></defs><g id="Layer_2" data-name="Layer 2"><g id="Layer_1-2" data-name="Layer 1"><line class="cls-1" x1="3.13" y1="66.01" x2="2.77" y2="65.92"/><path class="cls-2" d="M47.77.9a189,189,0,0,0-36.9,8l-9.6,3-.7,6.7c-.9,9.9-.7,41.9.4,55.7a100.3,100.3,0,0,0,20.2,53.9c8.9,11.8,27.1,25.7,41.7,31.8l5.1,2.1,6.3-3.1a155.49,155.49,0,0,0,25.4-16.4c13.4-10.6,26.7-31.5,31.4-49.3,2.4-9.3,4.1-40,3.7-65.4l-.3-15.3-5-2c-8.8-3.5-31-8.6-42.1-9.7A218.2,218.2,0,0,0,47.77.9Z"/><path class="cls-3" d="M130.68,92.48.76,62.07C.25,46.85.29,26.36,1,18.82l.7-6.6,9.54-3A188.32,188.32,0,0,1,47.88,1.37a219.21,219.21,0,0,1,39.36,0c11,1.08,33.1,6.11,41.85,9.57l5,2L134.35,28C134.75,53,133.06,83.31,130.68,92.48Z"/><path class="cls-4" d="M130.27,93.27c-4.66,17.74-17.83,38.57-31.11,49.13A153.7,153.7,0,0,1,74,158.75l-6.24,3.09-5.05-2.09c-14.47-6.08-32.5-19.94-41.31-31.7a100.22,100.22,0,0,1-20-53.72C1.14,71.18.93,67.1.78,62.53Z"/></g></g></svg>