<svg xmlns="http://www.w3.org/2000/svg" viewBox="0 0 134.83 162.1"><defs><style>.cls-1{fill:none;stroke-width:0.25px;}.cls-1,.cls-5{stroke:#1d1d1b;stroke-miterlimit:10;}.cls-2{fill:#010101;}.cls-3,.cls-5{fill:#fff;}.cls-4{fill:#3c3c3b;}.cls-5{stroke-width:0.75px;}</style></defs><g id="Layer_2" data-name="Layer 2"><g id="Layer_1-2" data-name="Layer 1"><line class="cls-1" x1="3.13" y1="66.01" x2="2.77" y2="65.92"/><path class="cls-2" d="M47.77.9a189,189,0,0,0-36.9,8l-9.6,3-.7,6.7c-.9,9.9-.7,41.9.4,55.7a100.3,100.3,0,0,0,20.2,53.9c8.9,11.8,27.1,25.7,41.7,31.8l5.1,2.1,6.3-3.1a155.49,155.49,0,0,0,25.4-16.4c13.4-10.6,26.7-31.5,31.4-49.3,2.4-9.3,4.1-40,3.7-65.4l-.3-15.3-5-2c-8.8-3.5-31-8.6-42.1-9.7A218.2,218.2,0,0,0,47.77.9Z"/><path class="cls-3" d="M130.68,92.48.76,62.07C.25,46.85.29,26.36,1,18.82l.7-6.6,9.54-3A188.32,188.32,0,0,1,47.88,1.37a219.21,219.21,0,0,1,39.36,0c11,1.08,33.1,6.11,41.85,9.57l5,2L134.35,28C134.75,53,133.06,83.31,130.68,92.48Z"/><path class="cls-4" d="M130.27,93.27c-4.66,17.74-17.83,38.57-31.11,49.13A153.7,153.7,0,0,1,74,158.75l-6.24,3.09-5.05-2.09c-14.47-6.08-32.5-19.94-41.31-31.7a100.22,100.22,0,0,1-20-53.72C1.14,71.18.93,67.1.78,62.53Z"/><rect class="cls-5" x="50.21" y="61.34" width="34.41" height="34.41"/><path class="cls-2" d="M67.25,63.37s-.16.55-.27.94l-.21.73c-.1.34-.21.72-.24.84s-.16.58-.29,1-.25.88-.28,1c-.17.57-.49,1.73-.73,2.56-.15.5-.37,1.29-.5,1.75l-.24.85-.19,0-1-.24L62,72.43l-.85-.21L60.28,72l-1.35-.33-1-.24-.86-.21L56.25,71l-1.07-.26a.44.44,0,0,0,0,.18v.19l3.19,3.67,3.19,3.69s-1.44,1.67-3.19,3.69l-3.19,3.67V86a.44.44,0,0,0,0,.18s.6-.13,1.07-.26l.86-.21.86-.21,1-.24L60.28,85l.85-.21.85-.21,1.35-.33,1-.24a.53.53,0,0,1,.19,0l.24.84c.13.46.35,1.25.5,1.75.24.83.56,2,.73,2.56,0,.12.16.57.28,1s.25.88.29,1,.14.5.24.85l.25.86c0,.13.1.37.15.52l.08.29h.33l.08-.29c0-.15.11-.39.15-.52s.14-.52.24-.86.21-.73.25-.85.16-.58.28-1,.25-.88.29-1c.16-.57.49-1.73.73-2.56l.5-1.75.24-.84.19,0,1,.24,1.34.33.85.21.85.21,1.35.33,1,.24.86.21.86.21c.48.13,1.06.26,1.08.26a.44.44,0,0,0,0-.18v-.19l-3.19-3.67c-1.76-2-3.19-3.68-3.19-3.69s1.43-1.67,3.19-3.69l3.19-3.67v-.19a.44.44,0,0,0,0-.18L78.57,71l-.86.21-.86.21-1,.24L74.54,72l-.85.21-.85.21-1.34.33-1,.24-.19,0-.24-.85c-.13-.46-.36-1.25-.5-1.75-.24-.83-.57-2-.73-2.56,0-.12-.16-.57-.29-1s-.25-.88-.28-1-.15-.5-.25-.85-.21-.73-.24-.86-.11-.37-.15-.52l-.08-.29h-.16A.35.35,0,0,0,67.25,63.37Z"/></g></g></svg>