<svg xmlns="http://www.w3.org/2000/svg" viewBox="0 0 134.85 162.1"><defs><style>.cls-1{fill:#010101;}.cls-2{fill:#94368b;}.cls-3{fill:#3c3c3b;}.cls-4{fill:#fff;}.cls-5{fill:none;stroke:#1d1d1b;stroke-miterlimit:10;stroke-width:0.25px;}</style></defs><g id="Layer_2" data-name="Layer 2"><g id="Layer_1-2" data-name="Layer 1"><path class="cls-1" d="M47.79.9a189,189,0,0,0-36.9,8l-9.6,3-.7,6.7c-.9,9.9-.7,41.9.4,55.7a100.3,100.3,0,0,0,20.2,53.9c8.9,11.8,27.1,25.7,41.7,31.8l5.1,2.1,6.3-3.1a155.49,155.49,0,0,0,25.4-16.4c13.4-10.6,26.7-31.5,31.4-49.3,2.4-9.3,4.1-40,3.7-65.4l-.3-15.3-5-2c-8.8-3.5-31-8.6-42.1-9.7A218.2,218.2,0,0,0,47.79.9Z"/><path class="cls-2" d="M133.38,72.3.74,39.21.56,40c0-9.1.23-16.4.56-20.21l.66-6.72L11.07,10A178.88,178.88,0,0,1,47.86,1.59a205.08,205.08,0,0,1,39.49,0c11.21,1.17,33.16,6.51,42,10.2l4.69,2,.29,15.78C134.49,43.21,134.14,59,133.38,72.3Z"/><path class="cls-3" d="M133.67,69.12c-.27,4.17-.58,8.07-.94,11.53a89.55,89.55,0,0,1-1.84,12.1,96.76,96.76,0,0,1-11,24.68L4,90A107.39,107.39,0,0,1,1.45,73.63c-.58-7.44-.93-21-.89-34.46,0-.54,0-1.06,0-1.59Z"/><path class="cls-4" d="M119.94,117.42c-5.79,9.53-12.87,18.15-20,23.88a156.62,156.62,0,0,1-25.6,16.77l-6.17,3.07-5-2.07c-14.59-6.18-33-20.42-42-32.43A102.36,102.36,0,0,1,3.74,89.58Z"/><line class="cls-5" x1="0.03" y1="37.58" x2="133.67" y2="69.12"/><line class="cls-5" x1="3.74" y1="89.58" x2="119.91" y2="117.43"/></g></g></svg>